<mxfile host="app.diagrams.net" modified="2024-03-31T01:11:31.014Z" agent="Mozilla/5.0 (Windows NT 10.0; Win64; x64) AppleWebKit/537.36 (KHTML, like Gecko) Chrome/116.0.0.0 Safari/537.36" etag="YmWxKdV3V7zerHE_93lA" version="24.2.1" type="device">
  <diagram name="Page-1" id="5Z7APpFcgfUc6ZyuO-cr">
    <mxGraphModel dx="1387" dy="-329" grid="1" gridSize="10" guides="1" tooltips="1" connect="1" arrows="1" fold="1" page="1" pageScale="1" pageWidth="827" pageHeight="1169" math="0" shadow="0">
      <root>
        <mxCell id="0" />
        <mxCell id="1" parent="0" />
        <mxCell id="42mja_NqprVF22DPiqrY-332" value="" style="sketch=0;pointerEvents=1;shadow=0;dashed=0;html=1;strokeColor=none;fillColor=#505050;labelPosition=center;verticalLabelPosition=bottom;verticalAlign=top;outlineConnect=0;align=center;shape=mxgraph.office.concepts.address_book;" vertex="1" parent="1">
          <mxGeometry x="20" y="1190" width="40" height="31" as="geometry" />
        </mxCell>
        <mxCell id="42mja_NqprVF22DPiqrY-333" value="" style="sketch=0;pointerEvents=1;shadow=0;dashed=0;html=1;strokeColor=none;fillColor=#505050;labelPosition=center;verticalLabelPosition=bottom;verticalAlign=top;outlineConnect=0;align=center;shape=mxgraph.office.concepts.anti_spam;" vertex="1" parent="1">
          <mxGeometry x="160" y="1192" width="55" height="47" as="geometry" />
        </mxCell>
        <mxCell id="42mja_NqprVF22DPiqrY-334" value="" style="sketch=0;pointerEvents=1;shadow=0;dashed=0;html=1;strokeColor=none;fillColor=#505050;labelPosition=center;verticalLabelPosition=bottom;verticalAlign=top;outlineConnect=0;align=center;shape=mxgraph.office.concepts.application_android;" vertex="1" parent="1">
          <mxGeometry x="230" y="1190" width="60" height="51" as="geometry" />
        </mxCell>
        <mxCell id="42mja_NqprVF22DPiqrY-335" value="" style="sketch=0;pointerEvents=1;shadow=0;dashed=0;html=1;strokeColor=none;fillColor=#505050;labelPosition=center;verticalLabelPosition=bottom;verticalAlign=top;outlineConnect=0;align=center;shape=mxgraph.office.concepts.application_generic;" vertex="1" parent="1">
          <mxGeometry x="300" y="1190" width="53" height="40" as="geometry" />
        </mxCell>
        <mxCell id="42mja_NqprVF22DPiqrY-336" value="" style="sketch=0;pointerEvents=1;shadow=0;dashed=0;html=1;strokeColor=none;fillColor=#505050;labelPosition=center;verticalLabelPosition=bottom;verticalAlign=top;outlineConnect=0;align=center;shape=mxgraph.office.concepts.address_book;" vertex="1" parent="1">
          <mxGeometry x="90" y="1192" width="40" height="31" as="geometry" />
        </mxCell>
        <mxCell id="42mja_NqprVF22DPiqrY-337" value="" style="sketch=0;pointerEvents=1;shadow=0;dashed=0;html=1;strokeColor=none;fillColor=#505050;labelPosition=center;verticalLabelPosition=bottom;verticalAlign=top;outlineConnect=0;align=center;shape=mxgraph.office.concepts.application_generic;" vertex="1" parent="1">
          <mxGeometry x="20" y="1250" width="40" height="30" as="geometry" />
        </mxCell>
        <mxCell id="42mja_NqprVF22DPiqrY-338" value="" style="sketch=0;pointerEvents=1;shadow=0;dashed=0;html=1;strokeColor=none;fillColor=#505050;labelPosition=center;verticalLabelPosition=bottom;verticalAlign=top;outlineConnect=0;align=center;shape=mxgraph.office.concepts.application_hybrid;" vertex="1" parent="1">
          <mxGeometry x="80.5" y="1250" width="59" height="44" as="geometry" />
        </mxCell>
        <mxCell id="42mja_NqprVF22DPiqrY-339" value="" style="sketch=0;pointerEvents=1;shadow=0;dashed=0;html=1;strokeColor=none;fillColor=#505050;labelPosition=center;verticalLabelPosition=bottom;verticalAlign=top;outlineConnect=0;align=center;shape=mxgraph.office.concepts.application_ios;" vertex="1" parent="1">
          <mxGeometry x="156" y="1250" width="59" height="49" as="geometry" />
        </mxCell>
        <mxCell id="42mja_NqprVF22DPiqrY-340" value="" style="sketch=0;pointerEvents=1;shadow=0;dashed=0;html=1;strokeColor=none;fillColor=#505050;labelPosition=center;verticalLabelPosition=bottom;verticalAlign=top;outlineConnect=0;align=center;shape=mxgraph.office.concepts.application_web;" vertex="1" parent="1">
          <mxGeometry x="234" y="1250" width="56" height="49" as="geometry" />
        </mxCell>
        <mxCell id="42mja_NqprVF22DPiqrY-341" value="" style="sketch=0;pointerEvents=1;shadow=0;dashed=0;html=1;strokeColor=none;fillColor=#505050;labelPosition=center;verticalLabelPosition=bottom;verticalAlign=top;outlineConnect=0;align=center;shape=mxgraph.office.concepts.application_windows;" vertex="1" parent="1">
          <mxGeometry x="301" y="1250" width="59" height="47" as="geometry" />
        </mxCell>
        <mxCell id="42mja_NqprVF22DPiqrY-342" value="" style="sketch=0;pointerEvents=1;shadow=0;dashed=0;html=1;strokeColor=none;fillColor=#505050;labelPosition=center;verticalLabelPosition=bottom;verticalAlign=top;outlineConnect=0;align=center;shape=mxgraph.office.concepts.app_for_office;" vertex="1" parent="1">
          <mxGeometry x="13.5" y="1322" width="53" height="40" as="geometry" />
        </mxCell>
        <mxCell id="42mja_NqprVF22DPiqrY-343" value="" style="sketch=0;pointerEvents=1;shadow=0;dashed=0;html=1;strokeColor=none;fillColor=#505050;labelPosition=center;verticalLabelPosition=bottom;verticalAlign=top;outlineConnect=0;align=center;shape=mxgraph.office.concepts.app_for_sharepoint;" vertex="1" parent="1">
          <mxGeometry x="80.5" y="1322" width="53" height="40" as="geometry" />
        </mxCell>
        <mxCell id="42mja_NqprVF22DPiqrY-344" value="" style="sketch=0;pointerEvents=1;shadow=0;dashed=0;html=1;strokeColor=none;fillColor=#505050;labelPosition=center;verticalLabelPosition=bottom;verticalAlign=top;outlineConnect=0;align=center;shape=mxgraph.office.concepts.app_part;" vertex="1" parent="1">
          <mxGeometry x="162.5" y="1314" width="46" height="45" as="geometry" />
        </mxCell>
        <mxCell id="42mja_NqprVF22DPiqrY-345" value="" style="sketch=0;pointerEvents=1;shadow=0;dashed=0;html=1;strokeColor=none;fillColor=#505050;labelPosition=center;verticalLabelPosition=bottom;verticalAlign=top;outlineConnect=0;align=center;shape=mxgraph.office.concepts.archive;" vertex="1" parent="1">
          <mxGeometry x="244.5" y="1309" width="35" height="55" as="geometry" />
        </mxCell>
        <mxCell id="42mja_NqprVF22DPiqrY-346" value="" style="sketch=0;pointerEvents=1;shadow=0;dashed=0;html=1;strokeColor=none;fillColor=#505050;labelPosition=center;verticalLabelPosition=bottom;verticalAlign=top;outlineConnect=0;align=center;shape=mxgraph.office.concepts.attachment;" vertex="1" parent="1">
          <mxGeometry x="319.5" y="1320" width="22" height="44" as="geometry" />
        </mxCell>
        <mxCell id="42mja_NqprVF22DPiqrY-347" value="" style="sketch=0;pointerEvents=1;shadow=0;dashed=0;html=1;strokeColor=none;fillColor=#505050;labelPosition=center;verticalLabelPosition=bottom;verticalAlign=top;outlineConnect=0;align=center;shape=mxgraph.office.concepts.backup_local;" vertex="1" parent="1">
          <mxGeometry x="16" y="1399" width="48" height="44" as="geometry" />
        </mxCell>
        <mxCell id="42mja_NqprVF22DPiqrY-348" value="" style="sketch=0;pointerEvents=1;shadow=0;dashed=0;html=1;strokeColor=none;fillColor=#505050;labelPosition=center;verticalLabelPosition=bottom;verticalAlign=top;outlineConnect=0;align=center;shape=mxgraph.office.concepts.backup_online;" vertex="1" parent="1">
          <mxGeometry x="90" y="1400" width="55" height="60" as="geometry" />
        </mxCell>
        <mxCell id="42mja_NqprVF22DPiqrY-349" value="" style="sketch=0;pointerEvents=1;shadow=0;dashed=0;html=1;strokeColor=none;fillColor=#505050;labelPosition=center;verticalLabelPosition=bottom;verticalAlign=top;outlineConnect=0;align=center;shape=mxgraph.office.concepts.bandwidth;" vertex="1" parent="1">
          <mxGeometry x="170" y="1390" width="45" height="45" as="geometry" />
        </mxCell>
        <mxCell id="42mja_NqprVF22DPiqrY-350" value="" style="sketch=0;pointerEvents=1;shadow=0;dashed=0;html=1;strokeColor=none;fillColor=#505050;labelPosition=center;verticalLabelPosition=bottom;verticalAlign=top;outlineConnect=0;align=center;shape=mxgraph.office.concepts.bandwidth_calculator;" vertex="1" parent="1">
          <mxGeometry x="244.5" y="1390" width="49" height="53" as="geometry" />
        </mxCell>
        <mxCell id="42mja_NqprVF22DPiqrY-351" value="" style="sketch=0;pointerEvents=1;shadow=0;dashed=0;html=1;strokeColor=none;fillColor=#505050;labelPosition=center;verticalLabelPosition=bottom;verticalAlign=top;outlineConnect=0;align=center;shape=mxgraph.office.concepts.best_practices;" vertex="1" parent="1">
          <mxGeometry x="307" y="1390" width="53" height="53" as="geometry" />
        </mxCell>
        <mxCell id="42mja_NqprVF22DPiqrY-352" value="" style="sketch=0;pointerEvents=1;shadow=0;dashed=0;html=1;strokeColor=none;fillColor=#505050;labelPosition=center;verticalLabelPosition=bottom;verticalAlign=top;outlineConnect=0;align=center;shape=mxgraph.office.concepts.book_journal;" vertex="1" parent="1">
          <mxGeometry x="25.5" y="1476.5" width="41" height="49" as="geometry" />
        </mxCell>
        <mxCell id="42mja_NqprVF22DPiqrY-353" value="" style="sketch=0;pointerEvents=1;shadow=0;dashed=0;html=1;strokeColor=none;fillColor=#505050;labelPosition=center;verticalLabelPosition=bottom;verticalAlign=top;outlineConnect=0;align=center;shape=mxgraph.office.concepts.calculator;" vertex="1" parent="1">
          <mxGeometry x="107.5" y="1483" width="32" height="46" as="geometry" />
        </mxCell>
        <mxCell id="42mja_NqprVF22DPiqrY-354" value="" style="sketch=0;pointerEvents=1;shadow=0;dashed=0;html=1;strokeColor=none;fillColor=#505050;labelPosition=center;verticalLabelPosition=bottom;verticalAlign=top;outlineConnect=0;align=center;shape=mxgraph.office.concepts.calendar;" vertex="1" parent="1">
          <mxGeometry x="170" y="1480" width="53" height="49" as="geometry" />
        </mxCell>
        <mxCell id="42mja_NqprVF22DPiqrY-355" value="" style="sketch=0;pointerEvents=1;shadow=0;dashed=0;html=1;strokeColor=none;fillColor=#505050;labelPosition=center;verticalLabelPosition=bottom;verticalAlign=top;outlineConnect=0;align=center;shape=mxgraph.office.concepts.clipboard;" vertex="1" parent="1">
          <mxGeometry x="244.5" y="1473.5" width="40" height="52" as="geometry" />
        </mxCell>
        <mxCell id="42mja_NqprVF22DPiqrY-356" value="" style="sketch=0;pointerEvents=1;shadow=0;dashed=0;html=1;strokeColor=none;fillColor=#505050;labelPosition=center;verticalLabelPosition=bottom;verticalAlign=top;outlineConnect=0;align=center;shape=mxgraph.office.concepts.clipboard;" vertex="1" parent="1">
          <mxGeometry x="319.5" y="1480" width="30" height="39" as="geometry" />
        </mxCell>
        <mxCell id="42mja_NqprVF22DPiqrY-357" value="" style="sketch=0;pointerEvents=1;shadow=0;dashed=0;html=1;strokeColor=none;fillColor=#505050;labelPosition=center;verticalLabelPosition=bottom;verticalAlign=top;outlineConnect=0;align=center;shape=mxgraph.office.concepts.clock;" vertex="1" parent="1">
          <mxGeometry x="23.5" y="1548.5" width="45" height="45" as="geometry" />
        </mxCell>
        <mxCell id="42mja_NqprVF22DPiqrY-358" value="" style="sketch=0;pointerEvents=1;shadow=0;dashed=0;html=1;strokeColor=none;fillColor=#505050;labelPosition=center;verticalLabelPosition=bottom;verticalAlign=top;outlineConnect=0;align=center;shape=mxgraph.office.concepts.clock;" vertex="1" parent="1">
          <mxGeometry x="104.5" y="1553.5" width="35" height="35" as="geometry" />
        </mxCell>
        <mxCell id="42mja_NqprVF22DPiqrY-359" value="" style="sketch=0;pointerEvents=1;shadow=0;dashed=0;html=1;strokeColor=none;fillColor=#505050;labelPosition=center;verticalLabelPosition=bottom;verticalAlign=top;outlineConnect=0;align=center;shape=mxgraph.office.concepts.column;" vertex="1" parent="1">
          <mxGeometry x="170" y="1545.5" width="52" height="43" as="geometry" />
        </mxCell>
        <mxCell id="42mja_NqprVF22DPiqrY-360" value="" style="sketch=0;pointerEvents=1;shadow=0;dashed=0;html=1;strokeColor=none;fillColor=#505050;labelPosition=center;verticalLabelPosition=bottom;verticalAlign=top;outlineConnect=0;align=center;shape=mxgraph.office.concepts.connector;" vertex="1" parent="1">
          <mxGeometry x="244.5" y="1556.5" width="44" height="32" as="geometry" />
        </mxCell>
        <mxCell id="42mja_NqprVF22DPiqrY-361" value="" style="sketch=0;pointerEvents=1;shadow=0;dashed=0;html=1;strokeColor=none;fillColor=#505050;labelPosition=center;verticalLabelPosition=bottom;verticalAlign=top;outlineConnect=0;align=center;shape=mxgraph.office.concepts.connector;" vertex="1" parent="1">
          <mxGeometry x="316.5" y="1560.5" width="33" height="24" as="geometry" />
        </mxCell>
        <mxCell id="42mja_NqprVF22DPiqrY-362" value="" style="sketch=0;pointerEvents=1;shadow=0;dashed=0;html=1;strokeColor=none;fillColor=#505050;labelPosition=center;verticalLabelPosition=bottom;verticalAlign=top;outlineConnect=0;align=center;shape=mxgraph.office.concepts.contacts;" vertex="1" parent="1">
          <mxGeometry x="23.5" y="1611" width="53" height="39" as="geometry" />
        </mxCell>
        <mxCell id="42mja_NqprVF22DPiqrY-363" value="" style="sketch=0;pointerEvents=1;shadow=0;dashed=0;html=1;strokeColor=none;fillColor=#505050;labelPosition=center;verticalLabelPosition=bottom;verticalAlign=top;outlineConnect=0;align=center;shape=mxgraph.office.concepts.content_type;" vertex="1" parent="1">
          <mxGeometry x="97" y="1610" width="53" height="40" as="geometry" />
        </mxCell>
        <mxCell id="42mja_NqprVF22DPiqrY-364" value="" style="sketch=0;pointerEvents=1;shadow=0;dashed=0;html=1;strokeColor=none;fillColor=#505050;labelPosition=center;verticalLabelPosition=bottom;verticalAlign=top;outlineConnect=0;align=center;shape=mxgraph.office.concepts.credit_card;" vertex="1" parent="1">
          <mxGeometry x="170" y="1605.5" width="55" height="36" as="geometry" />
        </mxCell>
        <mxCell id="42mja_NqprVF22DPiqrY-365" value="" style="sketch=0;pointerEvents=1;shadow=0;dashed=0;html=1;strokeColor=none;fillColor=#505050;labelPosition=center;verticalLabelPosition=bottom;verticalAlign=top;outlineConnect=0;align=center;shape=mxgraph.office.concepts.document;" vertex="1" parent="1">
          <mxGeometry x="250" y="1600" width="40" height="47" as="geometry" />
        </mxCell>
        <mxCell id="42mja_NqprVF22DPiqrY-366" value="" style="sketch=0;pointerEvents=1;shadow=0;dashed=0;html=1;strokeColor=none;fillColor=#505050;labelPosition=center;verticalLabelPosition=bottom;verticalAlign=top;outlineConnect=0;align=center;shape=mxgraph.office.concepts.document;" vertex="1" parent="1">
          <mxGeometry x="323" y="1600" width="30" height="35" as="geometry" />
        </mxCell>
        <mxCell id="42mja_NqprVF22DPiqrY-367" value="" style="sketch=0;pointerEvents=1;shadow=0;dashed=0;html=1;strokeColor=none;fillColor=#505050;labelPosition=center;verticalLabelPosition=bottom;verticalAlign=top;outlineConnect=0;align=center;shape=mxgraph.office.concepts.documents;" vertex="1" parent="1">
          <mxGeometry x="25.5" y="1662.5" width="46" height="54" as="geometry" />
        </mxCell>
        <mxCell id="42mja_NqprVF22DPiqrY-368" value="" style="sketch=0;pointerEvents=1;shadow=0;dashed=0;html=1;strokeColor=none;fillColor=#505050;labelPosition=center;verticalLabelPosition=bottom;verticalAlign=top;outlineConnect=0;align=center;shape=mxgraph.office.concepts.documents_shared;" vertex="1" parent="1">
          <mxGeometry x="102" y="1660" width="58" height="59" as="geometry" />
        </mxCell>
        <mxCell id="42mja_NqprVF22DPiqrY-369" value="" style="sketch=0;pointerEvents=1;shadow=0;dashed=0;html=1;strokeColor=none;fillColor=#505050;labelPosition=center;verticalLabelPosition=bottom;verticalAlign=top;outlineConnect=0;align=center;shape=mxgraph.office.concepts.document_blank;" vertex="1" parent="1">
          <mxGeometry x="182" y="1663" width="40" height="47" as="geometry" />
        </mxCell>
        <mxCell id="42mja_NqprVF22DPiqrY-370" value="" style="sketch=0;pointerEvents=1;shadow=0;dashed=0;html=1;strokeColor=none;fillColor=#505050;labelPosition=center;verticalLabelPosition=bottom;verticalAlign=top;outlineConnect=0;align=center;shape=mxgraph.office.concepts.document_blank;" vertex="1" parent="1">
          <mxGeometry x="254" y="1669" width="30" height="35" as="geometry" />
        </mxCell>
        <mxCell id="42mja_NqprVF22DPiqrY-371" value="" style="sketch=0;pointerEvents=1;shadow=0;dashed=0;html=1;strokeColor=none;fillColor=#505050;labelPosition=center;verticalLabelPosition=bottom;verticalAlign=top;outlineConnect=0;align=center;shape=mxgraph.office.concepts.document_shared;" vertex="1" parent="1">
          <mxGeometry x="316.5" y="1660" width="52" height="53" as="geometry" />
        </mxCell>
        <mxCell id="42mja_NqprVF22DPiqrY-372" value="" style="sketch=0;pointerEvents=1;shadow=0;dashed=0;html=1;strokeColor=none;fillColor=#505050;labelPosition=center;verticalLabelPosition=bottom;verticalAlign=top;outlineConnect=0;align=center;shape=mxgraph.office.concepts.email_expired;" vertex="1" parent="1">
          <mxGeometry x="314.5" y="1737" width="56" height="46" as="geometry" />
        </mxCell>
        <mxCell id="42mja_NqprVF22DPiqrY-373" value="" style="sketch=0;pointerEvents=1;shadow=0;dashed=0;html=1;strokeColor=none;fillColor=#505050;labelPosition=center;verticalLabelPosition=bottom;verticalAlign=top;outlineConnect=0;align=center;shape=mxgraph.office.concepts.email_approved;" vertex="1" parent="1">
          <mxGeometry x="245" y="1737" width="56" height="46" as="geometry" />
        </mxCell>
        <mxCell id="42mja_NqprVF22DPiqrY-374" value="" style="sketch=0;pointerEvents=1;shadow=0;dashed=0;html=1;strokeColor=none;fillColor=#505050;labelPosition=center;verticalLabelPosition=bottom;verticalAlign=top;outlineConnect=0;align=center;shape=mxgraph.office.concepts.email;" vertex="1" parent="1">
          <mxGeometry x="186.5" y="1742" width="31" height="24" as="geometry" />
        </mxCell>
        <mxCell id="42mja_NqprVF22DPiqrY-375" value="" style="sketch=0;pointerEvents=1;shadow=0;dashed=0;html=1;strokeColor=none;fillColor=#505050;labelPosition=center;verticalLabelPosition=bottom;verticalAlign=top;outlineConnect=0;align=center;shape=mxgraph.office.concepts.email;" vertex="1" parent="1">
          <mxGeometry x="104.5" y="1742" width="47" height="36" as="geometry" />
        </mxCell>
        <mxCell id="42mja_NqprVF22DPiqrY-376" value="" style="sketch=0;pointerEvents=1;shadow=0;dashed=0;html=1;strokeColor=none;fillColor=#505050;labelPosition=center;verticalLabelPosition=bottom;verticalAlign=top;outlineConnect=0;align=center;shape=mxgraph.office.concepts.download;" vertex="1" parent="1">
          <mxGeometry x="28.5" y="1732" width="48" height="56" as="geometry" />
        </mxCell>
        <mxCell id="42mja_NqprVF22DPiqrY-377" value="" style="sketch=0;pointerEvents=1;shadow=0;dashed=0;html=1;strokeColor=none;fillColor=#505050;labelPosition=center;verticalLabelPosition=bottom;verticalAlign=top;outlineConnect=0;align=center;shape=mxgraph.office.concepts.email_rejected;" vertex="1" parent="1">
          <mxGeometry x="28.5" y="1810" width="55" height="45" as="geometry" />
        </mxCell>
        <mxCell id="42mja_NqprVF22DPiqrY-378" value="" style="sketch=0;pointerEvents=1;shadow=0;dashed=0;html=1;strokeColor=none;fillColor=#505050;labelPosition=center;verticalLabelPosition=bottom;verticalAlign=top;outlineConnect=0;align=center;shape=mxgraph.office.concepts.file_key;" vertex="1" parent="1">
          <mxGeometry x="112" y="1805" width="48" height="53" as="geometry" />
        </mxCell>
        <mxCell id="42mja_NqprVF22DPiqrY-379" value="" style="sketch=0;pointerEvents=1;shadow=0;dashed=0;html=1;strokeColor=none;fillColor=#505050;labelPosition=center;verticalLabelPosition=bottom;verticalAlign=top;outlineConnect=0;align=center;shape=mxgraph.office.concepts.firewall;" vertex="1" parent="1">
          <mxGeometry x="182" y="1810" width="47" height="43" as="geometry" />
        </mxCell>
        <mxCell id="42mja_NqprVF22DPiqrY-380" value="" style="sketch=0;pointerEvents=1;shadow=0;dashed=0;html=1;strokeColor=none;labelPosition=center;verticalLabelPosition=bottom;verticalAlign=top;outlineConnect=0;align=center;shape=mxgraph.office.concepts.firewall;fillColor=#2072B8;" vertex="1" parent="1">
          <mxGeometry x="250" y="1810" width="47" height="43" as="geometry" />
        </mxCell>
        <mxCell id="42mja_NqprVF22DPiqrY-381" value="" style="sketch=0;pointerEvents=1;shadow=0;dashed=0;html=1;strokeColor=none;labelPosition=center;verticalLabelPosition=bottom;verticalAlign=top;outlineConnect=0;align=center;shape=mxgraph.office.concepts.firewall;fillColor=#DA4026;" vertex="1" parent="1">
          <mxGeometry x="319" y="1810" width="47" height="43" as="geometry" />
        </mxCell>
        <mxCell id="42mja_NqprVF22DPiqrY-382" value="" style="sketch=0;pointerEvents=1;shadow=0;dashed=0;html=1;strokeColor=none;labelPosition=center;verticalLabelPosition=bottom;verticalAlign=top;outlineConnect=0;align=center;shape=mxgraph.office.concepts.folder;fillColor=#DA4026;" vertex="1" parent="1">
          <mxGeometry x="316" y="1868" width="50" height="45" as="geometry" />
        </mxCell>
        <mxCell id="42mja_NqprVF22DPiqrY-383" value="" style="sketch=0;pointerEvents=1;shadow=0;dashed=0;html=1;strokeColor=none;labelPosition=center;verticalLabelPosition=bottom;verticalAlign=top;outlineConnect=0;align=center;shape=mxgraph.office.concepts.folder;fillColor=#2072B8;" vertex="1" parent="1">
          <mxGeometry x="250" y="1868" width="50" height="45" as="geometry" />
        </mxCell>
        <mxCell id="42mja_NqprVF22DPiqrY-384" value="" style="sketch=0;pointerEvents=1;shadow=0;dashed=0;html=1;strokeColor=none;fillColor=#505050;labelPosition=center;verticalLabelPosition=bottom;verticalAlign=top;outlineConnect=0;align=center;shape=mxgraph.office.concepts.folder;" vertex="1" parent="1">
          <mxGeometry x="179" y="1868" width="50" height="45" as="geometry" />
        </mxCell>
        <mxCell id="42mja_NqprVF22DPiqrY-385" value="" style="sketch=0;pointerEvents=1;shadow=0;dashed=0;html=1;strokeColor=none;labelPosition=center;verticalLabelPosition=bottom;verticalAlign=top;outlineConnect=0;align=center;shape=mxgraph.office.concepts.firewall;fillColor=#CCCBCB;" vertex="1" parent="1">
          <mxGeometry x="107.5" y="1870" width="47" height="43" as="geometry" />
        </mxCell>
        <mxCell id="42mja_NqprVF22DPiqrY-386" value="" style="sketch=0;pointerEvents=1;shadow=0;dashed=0;html=1;strokeColor=none;labelPosition=center;verticalLabelPosition=bottom;verticalAlign=top;outlineConnect=0;align=center;shape=mxgraph.office.concepts.firewall;fillColor=#7FBA42;" vertex="1" parent="1">
          <mxGeometry x="32.5" y="1870" width="47" height="43" as="geometry" />
        </mxCell>
        <mxCell id="42mja_NqprVF22DPiqrY-387" value="" style="sketch=0;pointerEvents=1;shadow=0;dashed=0;html=1;strokeColor=none;fillColor=#505050;labelPosition=center;verticalLabelPosition=bottom;verticalAlign=top;outlineConnect=0;align=center;shape=mxgraph.office.concepts.folders;" vertex="1" parent="1">
          <mxGeometry x="244" y="1936" width="57" height="53" as="geometry" />
        </mxCell>
        <mxCell id="42mja_NqprVF22DPiqrY-388" value="" style="sketch=0;pointerEvents=1;shadow=0;dashed=0;html=1;strokeColor=none;fillColor=#505050;labelPosition=center;verticalLabelPosition=bottom;verticalAlign=top;outlineConnect=0;align=center;shape=mxgraph.office.concepts.folder;" vertex="1" parent="1">
          <mxGeometry x="179.5" y="1940" width="33" height="30" as="geometry" />
        </mxCell>
        <mxCell id="42mja_NqprVF22DPiqrY-389" value="" style="sketch=0;pointerEvents=1;shadow=0;dashed=0;html=1;strokeColor=none;labelPosition=center;verticalLabelPosition=bottom;verticalAlign=top;outlineConnect=0;align=center;shape=mxgraph.office.concepts.folder;fillColor=#CCCBCB;" vertex="1" parent="1">
          <mxGeometry x="106" y="1940" width="50" height="45" as="geometry" />
        </mxCell>
        <mxCell id="42mja_NqprVF22DPiqrY-390" value="" style="sketch=0;pointerEvents=1;shadow=0;dashed=0;html=1;strokeColor=none;labelPosition=center;verticalLabelPosition=bottom;verticalAlign=top;outlineConnect=0;align=center;shape=mxgraph.office.concepts.folder;fillColor=#7FBA42;" vertex="1" parent="1">
          <mxGeometry x="32.5" y="1940" width="50" height="45" as="geometry" />
        </mxCell>
        <mxCell id="42mja_NqprVF22DPiqrY-391" value="" style="sketch=0;pointerEvents=1;shadow=0;dashed=0;html=1;strokeColor=none;fillColor=#505050;labelPosition=center;verticalLabelPosition=bottom;verticalAlign=top;outlineConnect=0;align=center;shape=mxgraph.office.concepts.folder_open;" vertex="1" parent="1">
          <mxGeometry x="316.5" y="1942" width="56" height="43" as="geometry" />
        </mxCell>
        <mxCell id="42mja_NqprVF22DPiqrY-392" value="" style="sketch=0;pointerEvents=1;shadow=0;dashed=0;html=1;strokeColor=none;fillColor=#505050;labelPosition=center;verticalLabelPosition=bottom;verticalAlign=top;outlineConnect=0;align=center;shape=mxgraph.office.concepts.folder_public;" vertex="1" parent="1">
          <mxGeometry x="32.5" y="1997" width="58" height="52" as="geometry" />
        </mxCell>
        <mxCell id="42mja_NqprVF22DPiqrY-393" value="" style="sketch=0;pointerEvents=1;shadow=0;dashed=0;html=1;strokeColor=none;fillColor=#505050;labelPosition=center;verticalLabelPosition=bottom;verticalAlign=top;outlineConnect=0;align=center;shape=mxgraph.office.concepts.folder_shared;" vertex="1" parent="1">
          <mxGeometry x="106" y="1997" width="54" height="52" as="geometry" />
        </mxCell>
        <mxCell id="42mja_NqprVF22DPiqrY-394" value="" style="sketch=0;pointerEvents=1;shadow=0;dashed=0;html=1;strokeColor=none;fillColor=#505050;labelPosition=center;verticalLabelPosition=bottom;verticalAlign=top;outlineConnect=0;align=center;shape=mxgraph.office.concepts.form;" vertex="1" parent="1">
          <mxGeometry x="178" y="2000" width="56" height="49" as="geometry" />
        </mxCell>
        <mxCell id="42mja_NqprVF22DPiqrY-395" value="" style="sketch=0;pointerEvents=1;shadow=0;dashed=0;html=1;strokeColor=none;fillColor=#505050;labelPosition=center;verticalLabelPosition=bottom;verticalAlign=top;outlineConnect=0;align=center;shape=mxgraph.office.concepts.get_started;" vertex="1" parent="1">
          <mxGeometry x="251.5" y="2000" width="42" height="52" as="geometry" />
        </mxCell>
        <mxCell id="42mja_NqprVF22DPiqrY-396" value="" style="sketch=0;pointerEvents=1;shadow=0;dashed=0;html=1;strokeColor=none;fillColor=#505050;labelPosition=center;verticalLabelPosition=bottom;verticalAlign=top;outlineConnect=0;align=center;shape=mxgraph.office.concepts.globe_internet;" vertex="1" parent="1">
          <mxGeometry x="311" y="2000" width="49" height="49" as="geometry" />
        </mxCell>
        <mxCell id="42mja_NqprVF22DPiqrY-397" value="" style="sketch=0;pointerEvents=1;shadow=0;dashed=0;html=1;strokeColor=none;labelPosition=center;verticalLabelPosition=bottom;verticalAlign=top;outlineConnect=0;align=center;shape=mxgraph.office.concepts.home;fillColor=#DA4026;" vertex="1" parent="1">
          <mxGeometry x="312.5" y="2063.5" width="51" height="50" as="geometry" />
        </mxCell>
        <mxCell id="42mja_NqprVF22DPiqrY-398" value="" style="sketch=0;pointerEvents=1;shadow=0;dashed=0;html=1;strokeColor=none;labelPosition=center;verticalLabelPosition=bottom;verticalAlign=top;outlineConnect=0;align=center;shape=mxgraph.office.concepts.home;fillColor=#2072B8;" vertex="1" parent="1">
          <mxGeometry x="251.5" y="2063.5" width="51" height="50" as="geometry" />
        </mxCell>
        <mxCell id="42mja_NqprVF22DPiqrY-399" value="" style="sketch=0;pointerEvents=1;shadow=0;dashed=0;html=1;strokeColor=none;fillColor=#505050;labelPosition=center;verticalLabelPosition=bottom;verticalAlign=top;outlineConnect=0;align=center;shape=mxgraph.office.concepts.home;" vertex="1" parent="1">
          <mxGeometry x="183" y="2063.5" width="51" height="50" as="geometry" />
        </mxCell>
        <mxCell id="42mja_NqprVF22DPiqrY-400" value="" style="sketch=0;pointerEvents=1;shadow=0;dashed=0;html=1;strokeColor=none;fillColor=#505050;labelPosition=center;verticalLabelPosition=bottom;verticalAlign=top;outlineConnect=0;align=center;shape=mxgraph.office.concepts.help;" vertex="1" parent="1">
          <mxGeometry x="118" y="2075.5" width="38" height="38" as="geometry" />
        </mxCell>
        <mxCell id="42mja_NqprVF22DPiqrY-401" value="" style="sketch=0;pointerEvents=1;shadow=0;dashed=0;html=1;strokeColor=none;fillColor=#505050;labelPosition=center;verticalLabelPosition=bottom;verticalAlign=top;outlineConnect=0;align=center;shape=mxgraph.office.concepts.help;" vertex="1" parent="1">
          <mxGeometry x="33" y="2070" width="49" height="49" as="geometry" />
        </mxCell>
        <mxCell id="42mja_NqprVF22DPiqrY-402" value="" style="sketch=0;pointerEvents=1;shadow=0;dashed=0;html=1;strokeColor=none;labelPosition=center;verticalLabelPosition=bottom;verticalAlign=top;outlineConnect=0;align=center;shape=mxgraph.office.concepts.home;fillColor=#7FBA42;" vertex="1" parent="1">
          <mxGeometry x="29.5" y="2130" width="51" height="50" as="geometry" />
        </mxCell>
        <mxCell id="42mja_NqprVF22DPiqrY-403" value="" style="sketch=0;pointerEvents=1;shadow=0;dashed=0;html=1;strokeColor=none;labelPosition=center;verticalLabelPosition=bottom;verticalAlign=top;outlineConnect=0;align=center;shape=mxgraph.office.concepts.home;fillColor=#CCCBCB;" vertex="1" parent="1">
          <mxGeometry x="112" y="2126.5" width="51" height="50" as="geometry" />
        </mxCell>
        <mxCell id="42mja_NqprVF22DPiqrY-404" value="" style="sketch=0;pointerEvents=1;shadow=0;dashed=0;html=1;strokeColor=none;fillColor=#505050;labelPosition=center;verticalLabelPosition=bottom;verticalAlign=top;outlineConnect=0;align=center;shape=mxgraph.office.concepts.home;" vertex="1" parent="1">
          <mxGeometry x="191" y="2130" width="39" height="38" as="geometry" />
        </mxCell>
        <mxCell id="42mja_NqprVF22DPiqrY-405" value="" style="sketch=0;pointerEvents=1;shadow=0;dashed=0;html=1;strokeColor=none;fillColor=#505050;labelPosition=center;verticalLabelPosition=bottom;verticalAlign=top;outlineConnect=0;align=center;shape=mxgraph.office.concepts.home_page;" vertex="1" parent="1">
          <mxGeometry x="251.5" y="2130" width="53" height="43" as="geometry" />
        </mxCell>
        <mxCell id="42mja_NqprVF22DPiqrY-406" value="" style="sketch=0;pointerEvents=1;shadow=0;dashed=0;html=1;strokeColor=none;labelPosition=center;verticalLabelPosition=bottom;verticalAlign=top;outlineConnect=0;align=center;shape=mxgraph.office.concepts.home_page;fillColor=#2072B8;" vertex="1" parent="1">
          <mxGeometry x="315.5" y="2130" width="53" height="43" as="geometry" />
        </mxCell>
        <mxCell id="42mja_NqprVF22DPiqrY-407" value="" style="sketch=0;pointerEvents=1;shadow=0;dashed=0;html=1;strokeColor=none;fillColor=#505050;labelPosition=center;verticalLabelPosition=bottom;verticalAlign=top;outlineConnect=0;align=center;shape=mxgraph.office.concepts.input_output_filter;" vertex="1" parent="1">
          <mxGeometry x="323" y="2187" width="46" height="46" as="geometry" />
        </mxCell>
        <mxCell id="42mja_NqprVF22DPiqrY-408" value="" style="sketch=0;pointerEvents=1;shadow=0;dashed=0;html=1;strokeColor=none;fillColor=#505050;labelPosition=center;verticalLabelPosition=bottom;verticalAlign=top;outlineConnect=0;align=center;shape=mxgraph.office.concepts.hybrid;" vertex="1" parent="1">
          <mxGeometry x="258.5" y="2181" width="58" height="52" as="geometry" />
        </mxCell>
        <mxCell id="42mja_NqprVF22DPiqrY-409" value="" style="sketch=0;pointerEvents=1;shadow=0;dashed=0;html=1;strokeColor=none;labelPosition=center;verticalLabelPosition=bottom;verticalAlign=top;outlineConnect=0;align=center;shape=mxgraph.office.concepts.home_page;fillColor=#CCCBCB;" vertex="1" parent="1">
          <mxGeometry x="183" y="2190" width="53" height="43" as="geometry" />
        </mxCell>
        <mxCell id="42mja_NqprVF22DPiqrY-410" value="" style="sketch=0;pointerEvents=1;shadow=0;dashed=0;html=1;strokeColor=none;labelPosition=center;verticalLabelPosition=bottom;verticalAlign=top;outlineConnect=0;align=center;shape=mxgraph.office.concepts.home_page;fillColor=#7FBA42;" vertex="1" parent="1">
          <mxGeometry x="107.5" y="2190" width="53" height="43" as="geometry" />
        </mxCell>
        <mxCell id="42mja_NqprVF22DPiqrY-411" value="" style="sketch=0;pointerEvents=1;shadow=0;dashed=0;html=1;strokeColor=none;labelPosition=center;verticalLabelPosition=bottom;verticalAlign=top;outlineConnect=0;align=center;shape=mxgraph.office.concepts.home_page;fillColor=#DA4026;" vertex="1" parent="1">
          <mxGeometry x="27.5" y="2190" width="53" height="43" as="geometry" />
        </mxCell>
        <mxCell id="42mja_NqprVF22DPiqrY-412" value="" style="sketch=0;pointerEvents=1;shadow=0;dashed=0;html=1;strokeColor=none;fillColor=#505050;labelPosition=center;verticalLabelPosition=bottom;verticalAlign=top;outlineConnect=0;align=center;shape=mxgraph.office.concepts.install;" vertex="1" parent="1">
          <mxGeometry x="23.5" y="2246" width="45" height="52" as="geometry" />
        </mxCell>
        <mxCell id="42mja_NqprVF22DPiqrY-413" value="" style="sketch=0;pointerEvents=1;shadow=0;dashed=0;html=1;strokeColor=none;fillColor=#505050;labelPosition=center;verticalLabelPosition=bottom;verticalAlign=top;outlineConnect=0;align=center;shape=mxgraph.office.concepts.integration;" vertex="1" parent="1">
          <mxGeometry x="111" y="2255" width="44" height="43" as="geometry" />
        </mxCell>
        <mxCell id="42mja_NqprVF22DPiqrY-414" value="" style="sketch=0;pointerEvents=1;shadow=0;dashed=0;html=1;strokeColor=none;fillColor=#505050;labelPosition=center;verticalLabelPosition=bottom;verticalAlign=top;outlineConnect=0;align=center;shape=mxgraph.office.concepts.lab;" vertex="1" parent="1">
          <mxGeometry x="187" y="2260" width="47" height="50" as="geometry" />
        </mxCell>
        <mxCell id="42mja_NqprVF22DPiqrY-415" value="" style="sketch=0;pointerEvents=1;shadow=0;dashed=0;html=1;strokeColor=none;fillColor=#505050;labelPosition=center;verticalLabelPosition=bottom;verticalAlign=top;outlineConnect=0;align=center;shape=mxgraph.office.concepts.learn;" vertex="1" parent="1">
          <mxGeometry x="256.5" y="2255" width="56" height="57" as="geometry" />
        </mxCell>
        <mxCell id="42mja_NqprVF22DPiqrY-416" value="" style="sketch=0;pointerEvents=1;shadow=0;dashed=0;html=1;strokeColor=none;fillColor=#505050;labelPosition=center;verticalLabelPosition=bottom;verticalAlign=top;outlineConnect=0;align=center;shape=mxgraph.office.concepts.license;" vertex="1" parent="1">
          <mxGeometry x="327.5" y="2260" width="45" height="52" as="geometry" />
        </mxCell>
        <mxCell id="42mja_NqprVF22DPiqrY-417" value="" style="sketch=0;pointerEvents=1;shadow=0;dashed=0;html=1;strokeColor=none;fillColor=#505050;labelPosition=center;verticalLabelPosition=bottom;verticalAlign=top;outlineConnect=0;align=center;shape=mxgraph.office.concepts.mailbox2;" vertex="1" parent="1">
          <mxGeometry x="323" y="2317.5" width="53" height="49" as="geometry" />
        </mxCell>
        <mxCell id="42mja_NqprVF22DPiqrY-418" value="" style="sketch=0;pointerEvents=1;shadow=0;dashed=0;html=1;strokeColor=none;fillColor=#505050;labelPosition=center;verticalLabelPosition=bottom;verticalAlign=top;outlineConnect=0;align=center;shape=mxgraph.office.concepts.mailbox;" vertex="1" parent="1">
          <mxGeometry x="262.5" y="2323" width="40" height="38" as="geometry" />
        </mxCell>
        <mxCell id="42mja_NqprVF22DPiqrY-419" value="" style="sketch=0;pointerEvents=1;shadow=0;dashed=0;html=1;strokeColor=none;fillColor=#505050;labelPosition=center;verticalLabelPosition=bottom;verticalAlign=top;outlineConnect=0;align=center;shape=mxgraph.office.concepts.mailbox;" vertex="1" parent="1">
          <mxGeometry x="181" y="2312" width="53" height="49" as="geometry" />
        </mxCell>
        <mxCell id="42mja_NqprVF22DPiqrY-420" value="" style="sketch=0;pointerEvents=1;shadow=0;dashed=0;html=1;strokeColor=none;fillColor=#505050;labelPosition=center;verticalLabelPosition=bottom;verticalAlign=top;outlineConnect=0;align=center;shape=mxgraph.office.concepts.list_library;" vertex="1" parent="1">
          <mxGeometry x="108.5" y="2312" width="52" height="48" as="geometry" />
        </mxCell>
        <mxCell id="42mja_NqprVF22DPiqrY-421" value="" style="sketch=0;pointerEvents=1;shadow=0;dashed=0;html=1;strokeColor=none;fillColor=#505050;labelPosition=center;verticalLabelPosition=bottom;verticalAlign=top;outlineConnect=0;align=center;shape=mxgraph.office.concepts.link;" vertex="1" parent="1">
          <mxGeometry x="24.5" y="2320" width="61" height="21" as="geometry" />
        </mxCell>
        <mxCell id="42mja_NqprVF22DPiqrY-422" value="" style="sketch=0;pointerEvents=1;shadow=0;dashed=0;html=1;strokeColor=none;fillColor=#505050;labelPosition=center;verticalLabelPosition=bottom;verticalAlign=top;outlineConnect=0;align=center;shape=mxgraph.office.concepts.migration;" vertex="1" parent="1">
          <mxGeometry x="319" y="2380" width="59" height="34" as="geometry" />
        </mxCell>
        <mxCell id="42mja_NqprVF22DPiqrY-423" value="" style="sketch=0;pointerEvents=1;shadow=0;dashed=0;html=1;strokeColor=none;fillColor=#505050;labelPosition=center;verticalLabelPosition=bottom;verticalAlign=top;outlineConnect=0;align=center;shape=mxgraph.office.concepts.meets_requirements;" vertex="1" parent="1">
          <mxGeometry x="250" y="2376.5" width="56" height="53" as="geometry" />
        </mxCell>
        <mxCell id="42mja_NqprVF22DPiqrY-424" value="" style="sketch=0;pointerEvents=1;shadow=0;dashed=0;html=1;strokeColor=none;fillColor=#505050;labelPosition=center;verticalLabelPosition=bottom;verticalAlign=top;outlineConnect=0;align=center;shape=mxgraph.office.concepts.marketplace_shopping_bag;" vertex="1" parent="1">
          <mxGeometry x="188" y="2380" width="36" height="46" as="geometry" />
        </mxCell>
        <mxCell id="42mja_NqprVF22DPiqrY-425" value="" style="sketch=0;pointerEvents=1;shadow=0;dashed=0;html=1;strokeColor=none;fillColor=#505050;labelPosition=center;verticalLabelPosition=bottom;verticalAlign=top;outlineConnect=0;align=center;shape=mxgraph.office.concepts.maintenance;" vertex="1" parent="1">
          <mxGeometry x="116" y="2380" width="39" height="56" as="geometry" />
        </mxCell>
        <mxCell id="42mja_NqprVF22DPiqrY-426" value="" style="sketch=0;pointerEvents=1;shadow=0;dashed=0;html=1;strokeColor=none;fillColor=#505050;labelPosition=center;verticalLabelPosition=bottom;verticalAlign=top;outlineConnect=0;align=center;shape=mxgraph.office.concepts.mailbox2;" vertex="1" parent="1">
          <mxGeometry x="39.5" y="2366.5" width="40" height="38" as="geometry" />
        </mxCell>
        <mxCell id="42mja_NqprVF22DPiqrY-427" value="" style="sketch=0;pointerEvents=1;shadow=0;dashed=0;html=1;strokeColor=none;fillColor=#505050;labelPosition=center;verticalLabelPosition=bottom;verticalAlign=top;outlineConnect=0;align=center;shape=mxgraph.office.concepts.moes;" vertex="1" parent="1">
          <mxGeometry x="36.5" y="2450" width="40" height="47" as="geometry" />
        </mxCell>
        <mxCell id="42mja_NqprVF22DPiqrY-428" value="" style="sketch=0;pointerEvents=1;shadow=0;dashed=0;html=1;strokeColor=none;fillColor=#505050;labelPosition=center;verticalLabelPosition=bottom;verticalAlign=top;outlineConnect=0;align=center;shape=mxgraph.office.concepts.navigation;" vertex="1" parent="1">
          <mxGeometry x="104.5" y="2457" width="53" height="40" as="geometry" />
        </mxCell>
        <mxCell id="42mja_NqprVF22DPiqrY-429" value="" style="sketch=0;pointerEvents=1;shadow=0;dashed=0;html=1;strokeColor=none;labelPosition=center;verticalLabelPosition=bottom;verticalAlign=top;outlineConnect=0;align=center;shape=mxgraph.office.concepts.node_generic;fillColor=#2072B8;" vertex="1" parent="1">
          <mxGeometry x="256.5" y="2451" width="46" height="52" as="geometry" />
        </mxCell>
        <mxCell id="42mja_NqprVF22DPiqrY-430" value="" style="sketch=0;pointerEvents=1;shadow=0;dashed=0;html=1;strokeColor=none;labelPosition=center;verticalLabelPosition=bottom;verticalAlign=top;outlineConnect=0;align=center;shape=mxgraph.office.concepts.node_generic;fillColor=#DA4026;" vertex="1" parent="1">
          <mxGeometry x="327.5" y="2451" width="46" height="52" as="geometry" />
        </mxCell>
        <mxCell id="42mja_NqprVF22DPiqrY-431" value="" style="sketch=0;pointerEvents=1;shadow=0;dashed=0;html=1;strokeColor=none;fillColor=#505050;labelPosition=center;verticalLabelPosition=bottom;verticalAlign=top;outlineConnect=0;align=center;shape=mxgraph.office.concepts.node_generic;" vertex="1" parent="1">
          <mxGeometry x="188" y="2451" width="46" height="52" as="geometry" />
        </mxCell>
        <mxCell id="42mja_NqprVF22DPiqrY-432" value="" style="sketch=0;pointerEvents=1;shadow=0;dashed=0;html=1;strokeColor=none;labelPosition=center;verticalLabelPosition=bottom;verticalAlign=top;outlineConnect=0;align=center;shape=mxgraph.office.concepts.node_generic;fillColor=#7FBA42;" vertex="1" parent="1">
          <mxGeometry x="33.5" y="2520" width="46" height="52" as="geometry" />
        </mxCell>
        <mxCell id="42mja_NqprVF22DPiqrY-433" value="" style="sketch=0;pointerEvents=1;shadow=0;dashed=0;html=1;strokeColor=none;labelPosition=center;verticalLabelPosition=bottom;verticalAlign=top;outlineConnect=0;align=center;shape=mxgraph.office.concepts.node_generic;fillColor=#CCCBCB;" vertex="1" parent="1">
          <mxGeometry x="110" y="2520" width="46" height="52" as="geometry" />
        </mxCell>
        <mxCell id="42mja_NqprVF22DPiqrY-434" value="" style="sketch=0;pointerEvents=1;shadow=0;dashed=0;html=1;strokeColor=none;fillColor=#505050;labelPosition=center;verticalLabelPosition=bottom;verticalAlign=top;outlineConnect=0;align=center;shape=mxgraph.office.concepts.office_installed;" vertex="1" parent="1">
          <mxGeometry x="183" y="2530" width="58" height="48" as="geometry" />
        </mxCell>
        <mxCell id="42mja_NqprVF22DPiqrY-435" value="" style="sketch=0;pointerEvents=1;shadow=0;dashed=0;html=1;strokeColor=none;fillColor=#505050;labelPosition=center;verticalLabelPosition=bottom;verticalAlign=top;outlineConnect=0;align=center;shape=mxgraph.office.concepts.on_premises;" vertex="1" parent="1">
          <mxGeometry x="268.5" y="2530" width="34" height="55" as="geometry" />
        </mxCell>
        <mxCell id="42mja_NqprVF22DPiqrY-436" value="" style="sketch=0;pointerEvents=1;shadow=0;dashed=0;html=1;strokeColor=none;fillColor=#505050;labelPosition=center;verticalLabelPosition=bottom;verticalAlign=top;outlineConnect=0;align=center;shape=mxgraph.office.concepts.on_premises_directory;" vertex="1" parent="1">
          <mxGeometry x="330" y="2530" width="50" height="59" as="geometry" />
        </mxCell>
        <mxCell id="42mja_NqprVF22DPiqrY-437" value="" style="sketch=0;pointerEvents=1;shadow=0;dashed=0;html=1;strokeColor=none;fillColor=#505050;labelPosition=center;verticalLabelPosition=bottom;verticalAlign=top;outlineConnect=0;align=center;shape=mxgraph.office.concepts.properties;" vertex="1" parent="1">
          <mxGeometry x="328" y="2603" width="50" height="49" as="geometry" />
        </mxCell>
        <mxCell id="42mja_NqprVF22DPiqrY-438" value="" style="sketch=0;pointerEvents=1;shadow=0;dashed=0;html=1;strokeColor=none;fillColor=#505050;labelPosition=center;verticalLabelPosition=bottom;verticalAlign=top;outlineConnect=0;align=center;shape=mxgraph.office.concepts.powershell;" vertex="1" parent="1">
          <mxGeometry x="263" y="2603" width="45" height="45" as="geometry" />
        </mxCell>
        <mxCell id="42mja_NqprVF22DPiqrY-439" value="" style="sketch=0;pointerEvents=1;shadow=0;dashed=0;html=1;strokeColor=none;fillColor=#505050;labelPosition=center;verticalLabelPosition=bottom;verticalAlign=top;outlineConnect=0;align=center;shape=mxgraph.office.concepts.platform_options;" vertex="1" parent="1">
          <mxGeometry x="183" y="2595" width="58" height="52" as="geometry" />
        </mxCell>
        <mxCell id="42mja_NqprVF22DPiqrY-440" value="" style="sketch=0;pointerEvents=1;shadow=0;dashed=0;html=1;strokeColor=none;fillColor=#505050;labelPosition=center;verticalLabelPosition=bottom;verticalAlign=top;outlineConnect=0;align=center;shape=mxgraph.office.concepts.pin;" vertex="1" parent="1">
          <mxGeometry x="119" y="2603" width="24" height="44" as="geometry" />
        </mxCell>
        <mxCell id="42mja_NqprVF22DPiqrY-441" value="" style="sketch=0;pointerEvents=1;shadow=0;dashed=0;html=1;strokeColor=none;fillColor=#505050;labelPosition=center;verticalLabelPosition=bottom;verticalAlign=top;outlineConnect=0;align=center;shape=mxgraph.office.concepts.phishing;" vertex="1" parent="1">
          <mxGeometry x="33" y="2600" width="59" height="47" as="geometry" />
        </mxCell>
        <mxCell id="42mja_NqprVF22DPiqrY-442" value="" style="sketch=0;pointerEvents=1;shadow=0;dashed=0;html=1;strokeColor=none;fillColor=#505050;labelPosition=center;verticalLabelPosition=bottom;verticalAlign=top;outlineConnect=0;align=center;shape=mxgraph.office.concepts.publish;" vertex="1" parent="1">
          <mxGeometry x="32.5" y="2668" width="57" height="48" as="geometry" />
        </mxCell>
        <mxCell id="42mja_NqprVF22DPiqrY-443" value="" style="sketch=0;pointerEvents=1;shadow=0;dashed=0;html=1;strokeColor=none;fillColor=#505050;labelPosition=center;verticalLabelPosition=bottom;verticalAlign=top;outlineConnect=0;align=center;shape=mxgraph.office.concepts.remote_access;" vertex="1" parent="1">
          <mxGeometry x="111" y="2675" width="59" height="41" as="geometry" />
        </mxCell>
        <mxCell id="42mja_NqprVF22DPiqrY-444" value="" style="sketch=0;pointerEvents=1;shadow=0;dashed=0;html=1;strokeColor=none;fillColor=#505050;labelPosition=center;verticalLabelPosition=bottom;verticalAlign=top;outlineConnect=0;align=center;shape=mxgraph.office.concepts.script;" vertex="1" parent="1">
          <mxGeometry x="187" y="2667.5" width="53" height="49" as="geometry" />
        </mxCell>
        <mxCell id="42mja_NqprVF22DPiqrY-445" value="" style="sketch=0;pointerEvents=1;shadow=0;dashed=0;html=1;strokeColor=none;fillColor=#505050;labelPosition=center;verticalLabelPosition=bottom;verticalAlign=top;outlineConnect=0;align=center;shape=mxgraph.office.concepts.search;" vertex="1" parent="1">
          <mxGeometry x="267" y="2668" width="49" height="49" as="geometry" />
        </mxCell>
        <mxCell id="42mja_NqprVF22DPiqrY-446" value="" style="sketch=0;pointerEvents=1;shadow=0;dashed=0;html=1;strokeColor=none;fillColor=#505050;labelPosition=center;verticalLabelPosition=bottom;verticalAlign=top;outlineConnect=0;align=center;shape=mxgraph.office.concepts.search;" vertex="1" parent="1">
          <mxGeometry x="335.5" y="2675" width="35" height="35" as="geometry" />
        </mxCell>
        <mxCell id="42mja_NqprVF22DPiqrY-447" value="" style="sketch=0;pointerEvents=1;shadow=0;dashed=0;html=1;strokeColor=none;fillColor=#505050;labelPosition=center;verticalLabelPosition=bottom;verticalAlign=top;outlineConnect=0;align=center;shape=mxgraph.office.concepts.sign_up;" vertex="1" parent="1">
          <mxGeometry x="330" y="2730" width="51" height="47" as="geometry" />
        </mxCell>
        <mxCell id="42mja_NqprVF22DPiqrY-448" value="" style="sketch=0;pointerEvents=1;shadow=0;dashed=0;html=1;strokeColor=none;fillColor=#505050;labelPosition=center;verticalLabelPosition=bottom;verticalAlign=top;outlineConnect=0;align=center;shape=mxgraph.office.concepts.settings_office_365;" vertex="1" parent="1">
          <mxGeometry x="270" y="2738.5" width="31" height="31" as="geometry" />
        </mxCell>
        <mxCell id="42mja_NqprVF22DPiqrY-449" value="" style="sketch=0;pointerEvents=1;shadow=0;dashed=0;html=1;strokeColor=none;fillColor=#505050;labelPosition=center;verticalLabelPosition=bottom;verticalAlign=top;outlineConnect=0;align=center;shape=mxgraph.office.concepts.settings_office_365;" vertex="1" parent="1">
          <mxGeometry x="189.5" y="2730" width="48" height="48" as="geometry" />
        </mxCell>
        <mxCell id="42mja_NqprVF22DPiqrY-450" value="" style="sketch=0;pointerEvents=1;shadow=0;dashed=0;html=1;strokeColor=none;fillColor=#505050;labelPosition=center;verticalLabelPosition=bottom;verticalAlign=top;outlineConnect=0;align=center;shape=mxgraph.office.concepts.service_application;" vertex="1" parent="1">
          <mxGeometry x="28.5" y="2730" width="59" height="48" as="geometry" />
        </mxCell>
        <mxCell id="42mja_NqprVF22DPiqrY-451" value="" style="sketch=0;pointerEvents=1;shadow=0;dashed=0;html=1;strokeColor=none;fillColor=#505050;labelPosition=center;verticalLabelPosition=bottom;verticalAlign=top;outlineConnect=0;align=center;shape=mxgraph.office.concepts.settings;" vertex="1" parent="1">
          <mxGeometry x="118" y="2730" width="48" height="48" as="geometry" />
        </mxCell>
        <mxCell id="42mja_NqprVF22DPiqrY-452" value="" style="sketch=0;pointerEvents=1;shadow=0;dashed=0;html=1;strokeColor=none;fillColor=#505050;labelPosition=center;verticalLabelPosition=bottom;verticalAlign=top;outlineConnect=0;align=center;shape=mxgraph.office.concepts.upgrade_server;" vertex="1" parent="1">
          <mxGeometry x="334.5" y="2788" width="39" height="52" as="geometry" />
        </mxCell>
        <mxCell id="42mja_NqprVF22DPiqrY-453" value="" style="sketch=0;pointerEvents=1;shadow=0;dashed=0;html=1;strokeColor=none;fillColor=#505050;labelPosition=center;verticalLabelPosition=bottom;verticalAlign=top;outlineConnect=0;align=center;shape=mxgraph.office.concepts.upgrade_application;" vertex="1" parent="1">
          <mxGeometry x="261.5" y="2794" width="58" height="42" as="geometry" />
        </mxCell>
        <mxCell id="42mja_NqprVF22DPiqrY-454" value="" style="sketch=0;pointerEvents=1;shadow=0;dashed=0;html=1;strokeColor=none;fillColor=#505050;labelPosition=center;verticalLabelPosition=bottom;verticalAlign=top;outlineConnect=0;align=center;shape=mxgraph.office.concepts.technical_diagram;" vertex="1" parent="1">
          <mxGeometry x="186" y="2787" width="50" height="56" as="geometry" />
        </mxCell>
        <mxCell id="42mja_NqprVF22DPiqrY-455" value="" style="sketch=0;pointerEvents=1;shadow=0;dashed=0;html=1;strokeColor=none;fillColor=#505050;labelPosition=center;verticalLabelPosition=bottom;verticalAlign=top;outlineConnect=0;align=center;shape=mxgraph.office.concepts.tasks;" vertex="1" parent="1">
          <mxGeometry x="120" y="2790" width="40" height="52" as="geometry" />
        </mxCell>
        <mxCell id="42mja_NqprVF22DPiqrY-456" value="" style="sketch=0;pointerEvents=1;shadow=0;dashed=0;html=1;strokeColor=none;fillColor=#505050;labelPosition=center;verticalLabelPosition=bottom;verticalAlign=top;outlineConnect=0;align=center;shape=mxgraph.office.concepts.sound_file;" vertex="1" parent="1">
          <mxGeometry x="36" y="2790" width="40" height="50" as="geometry" />
        </mxCell>
        <mxCell id="42mja_NqprVF22DPiqrY-457" value="" style="sketch=0;pointerEvents=1;shadow=0;dashed=0;html=1;strokeColor=none;fillColor=#505050;labelPosition=center;verticalLabelPosition=bottom;verticalAlign=top;outlineConnect=0;align=center;shape=mxgraph.office.concepts.upgrade_site;" vertex="1" parent="1">
          <mxGeometry x="33" y="2856" width="59" height="48" as="geometry" />
        </mxCell>
        <mxCell id="42mja_NqprVF22DPiqrY-458" value="" style="sketch=0;pointerEvents=1;shadow=0;dashed=0;html=1;strokeColor=none;fillColor=#505050;labelPosition=center;verticalLabelPosition=bottom;verticalAlign=top;outlineConnect=0;align=center;shape=mxgraph.office.concepts.upload;" vertex="1" parent="1">
          <mxGeometry x="113.5" y="2849" width="48" height="55" as="geometry" />
        </mxCell>
        <mxCell id="42mja_NqprVF22DPiqrY-459" value="" style="sketch=0;pointerEvents=1;shadow=0;dashed=0;html=1;strokeColor=none;fillColor=#505050;labelPosition=center;verticalLabelPosition=bottom;verticalAlign=top;outlineConnect=0;align=center;shape=mxgraph.office.concepts.video_form;" vertex="1" parent="1">
          <mxGeometry x="189.5" y="2864" width="58" height="49" as="geometry" />
        </mxCell>
        <mxCell id="42mja_NqprVF22DPiqrY-460" value="" style="sketch=0;pointerEvents=1;shadow=0;dashed=0;html=1;strokeColor=none;fillColor=#505050;labelPosition=center;verticalLabelPosition=bottom;verticalAlign=top;outlineConnect=0;align=center;shape=mxgraph.office.concepts.video_play;" vertex="1" parent="1">
          <mxGeometry x="268.5" y="2864" width="50" height="40" as="geometry" />
        </mxCell>
        <mxCell id="42mja_NqprVF22DPiqrY-461" value="" style="sketch=0;pointerEvents=1;shadow=0;dashed=0;html=1;strokeColor=none;fillColor=#505050;labelPosition=center;verticalLabelPosition=bottom;verticalAlign=top;outlineConnect=0;align=center;shape=mxgraph.office.concepts.voicemail;" vertex="1" parent="1">
          <mxGeometry x="334.5" y="2870" width="53" height="34" as="geometry" />
        </mxCell>
        <mxCell id="42mja_NqprVF22DPiqrY-462" value="" style="sketch=0;pointerEvents=1;shadow=0;dashed=0;html=1;strokeColor=none;fillColor=#505050;labelPosition=center;verticalLabelPosition=bottom;verticalAlign=top;outlineConnect=0;align=center;shape=mxgraph.office.concepts.web_page;" vertex="1" parent="1">
          <mxGeometry x="334.5" y="2914" width="50" height="54" as="geometry" />
        </mxCell>
        <mxCell id="42mja_NqprVF22DPiqrY-463" value="" style="sketch=0;pointerEvents=1;shadow=0;dashed=0;html=1;strokeColor=none;fillColor=#505050;labelPosition=center;verticalLabelPosition=bottom;verticalAlign=top;outlineConnect=0;align=center;shape=mxgraph.office.concepts.web_conferencing;" vertex="1" parent="1">
          <mxGeometry x="270" y="2913" width="60" height="56" as="geometry" />
        </mxCell>
        <mxCell id="42mja_NqprVF22DPiqrY-464" value="" style="sketch=0;pointerEvents=1;shadow=0;dashed=0;html=1;strokeColor=none;fillColor=#505050;labelPosition=center;verticalLabelPosition=bottom;verticalAlign=top;outlineConnect=0;align=center;shape=mxgraph.office.concepts.website;" vertex="1" parent="1">
          <mxGeometry x="187" y="2916" width="59" height="49" as="geometry" />
        </mxCell>
        <mxCell id="42mja_NqprVF22DPiqrY-465" value="" style="sketch=0;pointerEvents=1;shadow=0;dashed=0;html=1;strokeColor=none;fillColor=#505050;labelPosition=center;verticalLabelPosition=bottom;verticalAlign=top;outlineConnect=0;align=center;shape=mxgraph.office.concepts.walkthrough;" vertex="1" parent="1">
          <mxGeometry x="120" y="2910" width="41" height="58" as="geometry" />
        </mxCell>
        <mxCell id="42mja_NqprVF22DPiqrY-466" value="" style="sketch=0;pointerEvents=1;shadow=0;dashed=0;html=1;strokeColor=none;fillColor=#505050;labelPosition=center;verticalLabelPosition=bottom;verticalAlign=top;outlineConnect=0;align=center;shape=mxgraph.office.concepts.voicemail_preview;" vertex="1" parent="1">
          <mxGeometry x="29.5" y="2913" width="57" height="52" as="geometry" />
        </mxCell>
        <mxCell id="42mja_NqprVF22DPiqrY-467" value="" style="sketch=0;pointerEvents=1;shadow=0;dashed=0;html=1;strokeColor=none;fillColor=#505050;labelPosition=center;verticalLabelPosition=bottom;verticalAlign=top;outlineConnect=0;align=center;shape=mxgraph.office.concepts.writing_pencil;" vertex="1" parent="1">
          <mxGeometry x="331" y="2978" width="50" height="50" as="geometry" />
        </mxCell>
        <mxCell id="42mja_NqprVF22DPiqrY-468" value="" style="sketch=0;pointerEvents=1;shadow=0;dashed=0;html=1;strokeColor=none;fillColor=#505050;labelPosition=center;verticalLabelPosition=bottom;verticalAlign=top;outlineConnect=0;align=center;shape=mxgraph.office.concepts.writing_pen;" vertex="1" parent="1">
          <mxGeometry x="270" y="2976" width="54" height="54" as="geometry" />
        </mxCell>
        <mxCell id="42mja_NqprVF22DPiqrY-469" value="" style="sketch=0;pointerEvents=1;shadow=0;dashed=0;html=1;strokeColor=none;fillColor=#505050;labelPosition=center;verticalLabelPosition=bottom;verticalAlign=top;outlineConnect=0;align=center;shape=mxgraph.office.concepts.whats_new;" vertex="1" parent="1">
          <mxGeometry x="195" y="2976" width="55" height="38" as="geometry" />
        </mxCell>
        <mxCell id="42mja_NqprVF22DPiqrY-470" value="" style="sketch=0;pointerEvents=1;shadow=0;dashed=0;html=1;strokeColor=none;fillColor=#505050;labelPosition=center;verticalLabelPosition=bottom;verticalAlign=top;outlineConnect=0;align=center;shape=mxgraph.office.concepts.web_services;" vertex="1" parent="1">
          <mxGeometry x="113.5" y="2980" width="60" height="56" as="geometry" />
        </mxCell>
        <mxCell id="42mja_NqprVF22DPiqrY-471" value="" style="sketch=0;pointerEvents=1;shadow=0;dashed=0;html=1;strokeColor=none;fillColor=#505050;labelPosition=center;verticalLabelPosition=bottom;verticalAlign=top;outlineConnect=0;align=center;shape=mxgraph.office.concepts.web_part;" vertex="1" parent="1">
          <mxGeometry x="37" y="2969" width="45" height="52" as="geometry" />
        </mxCell>
      </root>
    </mxGraphModel>
  </diagram>
</mxfile>
